<svg height="512pt" preserveAspectRatio="xMidYMid meet" viewBox="0 0 512 512" width="512pt" xmlns="http://www.w3.org/2000/svg"><path d="m2497 5104c-29-16-261-281-303-346-74-115-84-278-26-402 53-113 155-203 270-237 23-7 42-17 42-23s-20-19-44-29c-52-21-100-66-129-121-21-39-22-55-25-353l-3-311-47 21c-35 15-67 21-122 21-76 0-102-9-201-71-24-15-27-15-69 16-57 41-139 65-201 58-57-7-141-41-165-68-23-26-37-24-86 11-45 33-123 60-173 60s-128-27-175-61c-42-31-45-31-69-16-98 61-125 71-201 71-122 1-212-54-272-167l-23-42-3-619c-3-673-3-665 53-746l24-35 3-561 3-562-111-4c-94-4-115-7-142-27-46-32-59-84-44-173 18-102 55-173 131-249 71-70 140-109 229-128 37-8 322-11 923-11h870l24 25c30 29 32 64 6 96l-19 24-894 5-893 5-57 28c-86 42-150 123-172 218l-6 27 723 6c397 4 1368 6 2157 4l1435-3-3-30c-9-84-81-178-170-222l-57-28-893-5-894-5-19-24c-26-32-24-67 6-96l24-25h870c595 0 887 3 923 11 132 28 264 131 322 252 36 78 53 183 38 236-21 67-55 84-186 89l-111 4 3 559 3 559 29 47c17 26 35 63 40 83 13 46 13 476 0 500-5 10-23 23-40 28-29 11-30 12-30 78v67l-32-7c-48-9-104-50-135-98l-28-41-5-251c-5-235-7-254-28-293-12-24-26-43-31-43-14 0-70 49-84 74-8 14-14 100-17 266-5 227-7 248-28 290-54 110-138 170-251 178-80 5-133-8-192-48-24-16-55-30-70-30-42 0-125-48-152-88-44-63-47-84-47-310 0-220-7-274-38-311-17-21-17-21-49-2-66 41-67 49-73 326-5 247-5 251-32 300-86 163-296 217-438 114-22-16-51-29-65-29-64 0-140-53-178-125-20-37-22-58-27-290-3-171-9-256-17-270-30-49-28-48-61-31-16 8-41 32-53 53-23 36-24 48-29 288-6 287-9 296-100 378-107 96-256 104-378 19-15-11-46-22-70-25-56-7-114-46-149-99l-28-41-5-251c-5-236-7-254-28-294-12-23-26-42-31-42-14 0-70 49-84 74-8 14-14 99-17 266-6 271-11 295-79 373-37 42-141 97-183 97h-28v244c0 193 3 251 15 279 8 20 19 38 24 41s33-10 63-30c49-33 57-36 114-32 51 3 71 10 115 41 74 50 123 51 199 2 66-43 87-49 150-43 35 4 64 15 102 41 74 52 125 51 199 0 50-35 59-38 124-38s74 3 124 38c74 52 127 52 202 0 37-25 68-38 101-41 61-6 82 0 148 43 76 49 125 48 198-2 38-26 67-37 102-41 63-6 84 0 150 43 76 49 125 48 199-2 44-31 64-38 115-41 58-4 64-2 124 38 58 39 67 42 115 38 39-4 66-14 107-42 51-36 59-38 116-34 51 3 71 10 115 41 64 44 123 50 176 17 65-39 67-50 73-306 5-240 8-256 50-269 29-9 88 20 95 48 4 13 5 129 3 258-3 220-4 236-26 276-35 66-79 110-140 140-47 23-70 28-132 27-76 0-103-10-201-71-24-15-27-15-69 16-47 34-125 61-175 61s-128-27-173-60c-49-35-63-37-86-11-24 27-108 61-165 68-62 7-144-17-201-58-42-31-45-31-69-16-99 62-125 71-201 71-55 0-87-6-122-21l-47-21-3 311c-3 298-4 314-25 353-29 55-77 100-129 121-24 10-44 23-44 29s19 16 43 23c141 42 254 160 293 306 29 107 9 241-50 333-44 68-275 331-305 347-38 19-88 19-124-1zm182-279c61-71 121-150 133-174 25-51 34-130 21-181l-9-34-22 44c-35 71-176 227-212 235-60 13-86-2-170-98-44-51-90-112-102-137l-22-44-9 34c-14 53-3 133 24 184 25 48 240 307 250 303 4-1 57-60 118-132zm-64-345c58-69 68-99 52-148-16-47-57-77-107-77-71 0-130 73-112 139 7 26 99 146 112 146 3 0 28-27 55-60zm15-558c54-27 59-52 59-351l1-263-32 8c-42 10-155 11-190 1l-28-7v280c0 182 4 288 11 301 24 46 118 62 179 31zm-1334-1507c51-33 64-70 64-187v-108h-145-145v103c0 125 15 161 81 195 50 26 102 25 145-3zm884 3c65-34 80-70 80-196v-103l-147 3-148 3-3 77c-5 124 24 194 92 224 45 19 76 17 126-8zm909-5c58-44 66-66 66-181v-107l-147-3-148-3v95c0 102 9 137 43 175 49 53 132 63 186 24zm881 9c19-9 45-32 57-51 20-30 23-46 23-142v-109h-145-145v108c0 97 2 111 24 143 44 65 119 85 186 51zm-2606-514c18-173 163-300 325-285 152 13 271 142 271 294v53h149 148l5-64c10-114 78-214 177-259 71-33 179-30 253 6 100 49 168 157 168 267v50h150 150v-58c0-45 7-73 30-120 93-184 314-228 463-92 63 58 94 121 104 210l6 60h142 142l6-60c10-89 41-152 104-210 62-57 133-83 211-79l47 3 3-187 2-187h-1860-1860v184 183l74 5c164 11 278 121 293 284l6 64h142 142zm3056-1042c0-211-1-225-21-250l-20-26h-1819-1819l-20 26c-20 25-21 39-21 250v224h1860 1860z" transform="matrix(.1 0 0 -.1 0 512)"/></svg>