<svg height="512pt" preserveAspectRatio="xMidYMid meet" viewBox="0 0 512 512" width="512pt" xmlns="http://www.w3.org/2000/svg"><g transform="matrix(.1 0 0 -.1 0 512)"><path d="m2363 5109c-998-72-1885-755-2218-1709-261-751-157-1586 281-2247 544-821 1488-1253 2464-1127 140 18 191 29 170 37-8 3-60 18-114 32-338 90-660 256-948 489-95 77-95 82-8 85 59 2 93 32 155 137 92 156 88 186-51 339-112 124-162 147-237 109-80-42-259-168-269-190-6-13-15-24-19-24-13 0-150 214-212 330-88 167-184 417-217 566-6 27-13 56-16 66-3 12 4 18 28 23 51 11 94 42 112 79 24 50 59 234 53 273-10 59-40 88-153 142l-106 51 7 108c15 237 57 464 122 666 50 155 46 151 86 111 58-58 92-62 284-31 203 33 233 42 267 73 41 38 57 79 77 202 26 160 25 204-7 259-23 39-37 49-123 88-53 25-113 52-134 62l-39 18 39 49c177 223 471 469 738 618 187 103 458 211 628 248 32 7 60 16 62 20 6 9-180 37-330 49-135 11-210 11-372-1zm-1632-1789c27-15 43-51 69-158 19-79 20-97 10-123-24-57-104-74-144-30-17 19-66 196-66 238 0 14 13 37 29 54 31 30 67 37 102 19z"/><path d="m3982 4886c-35-12-74-31-86-41-25-23-176-391-176-430 0-37 129-356 155-383 29-31 68-31 142 2l61 28-28 26c-33 30-160 336-160 384 0 25 80 237 143 381 14 31 23 57 19 56-4 0-36-10-70-23z"/><path d="m2429 4451c-36-36-38-79-6-117 18-20 45-32 117-50 114-28 138-29 170-7 34 23 40 33 40 70 0 56-34 82-140 109-125 31-145 30-181-5z"/><path d="m3042 4065c-76-43-268-195-287-227-13-22-19-51-19-88 0-50 7-69 86-215 48-88 96-170 108-182 52-57 125-67 265-39 235 49 259 71 276 258 21 245 15 292-48 349-52 47-199 146-235 158-49 16-102 11-146-14z"/><path d="m4327 3759c-97-68-96-63-57-263 30-152 37-174 62-200 28-27 32-28 91-21 34 3 63 8 65 10 1 1-6 18-16 36-25 43-96 402-89 446 3 18 5 33 4 32-1 0-28-18-60-40z"/><path d="m3845 3613c-39-10-62-44-90-133-37-115-32-129 60-192 77-54 111-59 149-25 22 18 30 43 50 141 26 130 23 171-15 195-24 14-121 23-154 14z"/><path d="m1403 3055c-37-16-53-42-53-86 0-26 14-46 82-116 45-46 93-86 105-89 59-15 113 27 113 88 0 33-9 47-72 114-40 43-87 83-105 90-38 16-30 17-70-1z"/><path d="m4204 2986c-44-19-61-70-40-120 18-44 23-46 208-82l148-28 27 20c37 27 52 96 34 155s-49 69-213 69c-90-1-143-5-164-14z"/><path d="m3216 2730c-80-77-110-125-100-164 13-54 81-85 129-58 11 5 55 46 98 90 63 66 77 85 77 112 0 45-47 90-94 90-31 0-47-10-110-70z"/><path d="m2214 2751c-22-10-50-31-62-45-20-26-132-345-132-376 0-34 22-91 47-121 18-21 83-59 196-115 244-121 273-117 444 59 107 110 132 159 119 230-7 40-152 287-192 330-47 49-79 57-236 57-118 0-150-4-184-19z"/><path d="m4335 2198c-32-19-44-41-45-82 0-34 8-46 76-117 44-44 91-83 109-89 60-20 115 22 115 88 0 29-12 46-72 109-97 100-135 119-183 91z"/><path d="m3420 1844c-70-30-82-51-165-268-87-230-80-259 100-406 111-92 145-110 205-110 54 0 80 15 232 127 171 126 176 136 160 317-15 158-24 195-59 231-42 41-66 51-232 89-171 40-191 42-241 20z"/><path d="m2530 1668c-32-35-34-62-11-156 29-119 39-141 72-157 40-21 63-19 98 11 25 21 31 33 31 65 0 65-41 211-66 236-32 31-95 32-124 1z"/><path d="m3145 772c-50-10-192-76-212-98-30-33-29-75 3-113 35-41 71-40 181 5 107 44 135 68 135 119 0 59-49 98-107 87z"/></g></svg>