<svg height="512pt" preserveAspectRatio="xMidYMid meet" viewBox="0 0 512 512" width="512pt" xmlns="http://www.w3.org/2000/svg"><path d="m2415 5069c-501-30-977-205-1377-507-815-615-1193-1629-972-2607 37-167 85-255 197-369 109-109 188-155 333-192 139-35 244-29 338 18 48 24 128 103 152 149 22 44 44 125 44 168 0 55 21 108 59 152 107 126 303 96 372-56 17-36 19-72 19-400 0-391 5-436 56-538 132-260 461-348 703-186 135 90 204 214 221 398 9 97 23 132 71 180 65 66 162 88 244 56 99-37 141-96 160-224 15-101 30-136 82-187 55-55 112-77 205-77 126 0 211 53 262 163 20 42 21 67 26 370 5 309 6 327 27 365 83 154 279 191 406 76 51-46 78-107 87-197 9-89 37-148 98-208 64-63 96-83 171-106 201-63 424 30 520 218 57 109 140 410 172 623 38 249 30 593-20 855-165 864-789 1599-1618 1908-327 122-688 176-1038 155zm-596-497c7-14 0-62-25-173-34-149-47-179-80-179-17 0-44 28-44 45s69 305 76 316c10 17 63 10 73-9zm1625 2c24-9 20-51-16-207-24-106-37-141-51-149-26-14-67 5-67 31 0 40 71 315 83 323 15 9 30 10 51 2zm-965-266c6-15 5-30-2-41-19-30-281-151-310-143-28 7-39 35-25 61 13 23 265 144 301 145 20 0 30-7 36-22zm1631-2c6-8 10-25 8-38-2-19-29-36-138-90-150-74-184-81-202-43-16 37 0 50 147 121 136 66 165 73 185 50zm-2819-37c9-18 1-42-57-161-74-151-91-173-123-163-47 15-45 37 19 172 34 70 68 138 76 150 19 30 69 31 85 2zm1636-15c12-19 7-34-59-165-75-148-95-172-125-153-39 24-37 37 26 169 80 168 86 177 118 173 14-2 32-13 40-24zm-989-372c11-11 49-79 87-152 59-116 66-136 56-157-9-20-17-24-44-21-30 3-36 10-104 143-40 77-73 146-73 154 0 19 29 51 47 51 7 0 21-8 31-18zm1634-4c29-24 160-286 153-308-9-29-40-43-64-30-23 12-161 268-161 298 0 12 10 28 22 36 27 19 30 19 50 4zm-2075-159c71-45 131-87 136-93 15-23 3-60-24-70-22-8-43 2-162 78-78 50-139 96-142 107-8 24 20 59 46 59 10 0 76-37 146-81zm1629-5c65-42 127-83 137-92 36-32 11-89-35-80-37 7-270 160-281 185-8 18-6 27 8 43 10 11 26 20 35 20s70-34 136-76zm1085-314c10-6 19-21 19-33-1-46-68-310-81-318-21-13-45-11-59 6-15 19-10 59 26 213 32 135 47 157 95 132zm-1473-26c151-30 301-109 418-218 176-163 275-390 276-631 0-246-79-444-250-619-299-306-777-349-1127-101-185 132-315 334-355 555-16 89-15 250 3 336 70 333 343 608 672 678 94 19 267 20 363 0zm-1860-36c18-18 15-43-19-189-35-154-42-169-72-169-29 0-47 18-47 46 0 43 68 307 82 315 19 12 42 11 56-3zm4000-200c16-16 15-53-2-67-31-26-288-139-306-134-22 6-34 35-26 61 7 20 265 150 302 151 11 1 25-4 32-11zm-1190-40c22-22 12-51-61-193-58-112-77-141-95-143-28-4-52 14-52 39 0 18 121 270 142 297 13 15 50 16 66 0zm-2148-22c6-8 10-25 8-38-2-19-31-37-151-96-143-71-149-73-173-58-28 19-31 47-8 67 27 23 267 137 290 138 12 1 27-6 34-13zm-1192-38c7-7 12-22 12-35 0-28-121-273-144-292s-64-6-72 23c-4 17 13 61 61 157 37 74 72 140 77 147 13 15 50 16 66 0zm4069-468c76-143 87-182 53-200-40-21-58-2-135 144-41 79-75 148-75 154 0 21 33 43 59 40 22-3 36-22 98-138zm-3393 42c13-22 49-88 79-148 56-113 61-143 21-158-36-14-54 7-123 142-72 138-81 168-59 190 24 24 57 14 82-26zm2886-84c72-45 133-91 136-100 9-28-14-58-44-58-17 0-77 33-157 84-104 66-131 89-133 108-4 31 24 61 50 55 10-3 77-43 148-89zm-3467 21c72-37 257-164 262-180 9-28-12-59-40-59-13 0-83 37-155 83-139 87-158 110-125 147 21 23 28 24 58 9z" transform="matrix(.1 0 0 -.1 0 512)"/></svg>