<svg height="512pt" preserveAspectRatio="xMidYMid meet" viewBox="0 0 512 512" width="512pt" xmlns="http://www.w3.org/2000/svg"><g transform="matrix(.1 0 0 -.1 0 512)"><path d="m2458 4657c-32-32-35-33-169-45-1023-92-1831-675-1987-1432l-17-84-42-8c-159-27-274-205-234-363 14-54 616-1382 639-1407 21-24 84-24 105 0 10 10 17 32 17 49 0 18-121 296-306 703-168 370-308 687-311 705-7 46 27 120 69 145 72 44 217 11 271-62 12-16 195-534 407-1151l386-1122-31-3c-42-5-97 13-122 40-11 13-70 130-129 261-117 257-132 278-187 258-27-11-57-47-57-70 0-8 48-123 108-255 97-219 112-246 162-297 96-97-41-89 1530-89s1435-8 1529 89c53 55 67 83 532 1107 263 579 483 1071 489 1095 43 157-74 340-232 367l-41 7-23 100c-51 229-162 452-309 625-55 65-87 82-127 68-25-9-33-5-92 48-56 52-62 61-53 81 17 39 0 69-70 121-277 204-654 362-1034 433-124 23-127 24-145 57-31 58-50 62-283 62h-210zm-168-227c-30-42-36-90-16-131 12-26 58-63 183-149 188-130 215-144 258-136 16 4 109 52 206 107 197 112 217 132 207 206l-6 41 62-25c88-36 265-126 343-175 287-178 512-413 643-671l60-119-30-28c-21-20-30-37-30-59 0-41 39-81 79-81 27 0 30-4 41-52 15-64 25-292 16-342-7-36-7-36-59-36-75 0-150 39-191 99-125 186-302 259-488 201-87-27-152-75-218-162-72-95-123-130-194-136-111-9-176 23-249 124-101 138-193 188-347 188s-246-50-347-188c-73-101-138-133-249-124-71 6-122 41-194 136-66 87-131 135-218 162-186 58-363-15-488-201-57-84-169-119-278-87-45 14-113 76-163 151-32 46-140 127-170 127-11 0-12 9-8 38 64 379 307 715 707 976 192 125 481 246 738 307 111 27 336 65 398 68l23 1zm-755-1510c43-20 60-33 88-66 14-16 52-254 182-1140 91-615 165-1122 165-1127 0-4-41-6-92-5l-92 3-277 1130-277 1130 25 27c64 68 192 90 278 48zm1130 1c22-10 53-33 70-50l29-32-53-1107c-29-609-54-1117-57-1130-4-21-9-22-94-22s-90 1-94 23c-2 12-18 312-35 666-30 630-31 644-52 667-30 32-78 32-109-1l-23-25 32-652c17-359 31-659 31-665 0-10-25-13-90-13-85 0-90 1-95 23-3 12-70 470-150 1017s-148 1005-150 1017c-5 22-5 22 37 6 27-10 76-16 133-17 75-1 100 3 151 25l61 26 7-101c3-56 9-165 12-244 8-161 20-192 74-192 88 0 89 7 72 383l-16 317 30 31c44 47 99 69 174 69 42 0 79-7 105-19zm1129-1c23-12 55-33 69-48l25-27-277-1130-277-1130-92-3c-51-1-92 1-92 5 0 5 74 511 165 1126 98 665 170 1126 178 1137 58 83 202 116 301 70zm1104 0c41-25 76-99 69-144-6-35-939-2096-968-2137-25-36-81-61-127-57l-38 3 386 1122c212 617 395 1135 407 1151 54 73 199 106 271 62zm-3533-1266c141-571 258-1047 261-1057 5-16-2-18-86-15l-92 3-324 945c-178 520-337 983-353 1028-24 68-27 83-14 78 74-29 215-13 299 33 27 15 50 27 52 26 1-1 117-469 257-1041zm2868 972c45-1 96 2 114 6l31 7-29-82c-16-45-175-507-353-1027l-324-945-92-3c-84-3-91-1-86 15 5 15 516 2094 516 2098 0 1 32-14 71-34 63-31 79-35 152-35zm-1108 0c57 1 106 7 133 17 42 16 42 16 37-6-2-12-70-470-150-1017s-147-1005-150-1017c-5-22-10-23-95-23-87 0-90 1-90 23 0 12 23 478 50 1036 28 558 50 1020 50 1026 0 9 21 4 63-14 52-22 76-26 152-25z"/><path d="m3373 4190c-47-19-58-92-20-128 42-40 107-25 126 28 23 67-41 127-106 100z"/><path d="m2145 4115c-42-41-30-102 25-125 54-22 110 19 110 81 0 31-44 69-80 69-19 0-40-9-55-25z"/><path d="m1529 4026c-127-66-440-251-458-270-15-16-25-41-27-68-4-38 5-61 78-203 54-102 93-166 111-180 27-19 43-20 235-20 167 0 212 3 235 15 15 9 72 80 127 160 85 122 100 150 100 182 0 22-5 49-12 61-6 12-67 87-136 166-147 168-186 192-253 157zm142-266c52-61 93-115 92-119-1-5-32-52-69-105l-67-96h-156-157l-54 110c-30 60-51 112-47 116 9 10 351 204 358 204 3 0 48-50 100-110z"/><path d="m3073 3980c-35-21-63-66-63-102 0-35 90-460 103-487 7-13 25-34 40-45 26-20 44-21 243-24 181-3 219-1 248 13 26 12 64 59 156 192 122 176 140 207 140 245 0 32-29 85-58 104-17 11-138 34-371 70-190 30-359 54-376 54-16 0-44-9-62-20z"/><path d="m2360 3660c-12-12-20-33-20-55s8-43 20-55 33-20 55-20 43 8 55 20 20 33 20 55-8 43-20 55-33 20-55 20-43-8-55-20z"/><path d="m2202 3417c-49-52-15-127 56-127 49 0 76 27 76 77 0 67-86 100-132 50z"/><path d="m2815 3345c-16-15-25-36-25-55 0-36 38-80 69-80 48 0 91 41 91 86 0 25-56 74-85 74-14 0-37-11-50-25z"/><path d="m899 3331c-16-16-29-36-29-45 0-45 43-86 91-86 31 0 69 44 69 80 0 39-39 80-75 80-16 0-38-12-56-29z"/></g></svg>